<svg xmlns="http://www.w3.org/2000/svg" viewBox="0 0 35.19 42.7"><defs><style>.cls-1{fill:#111}.cls-2{fill:#fff}</style></defs><title>hhh_logo_1</title><g id="レイヤー_2" data-name="レイヤー 2"><g id="レイヤー_1-2" data-name="レイヤー 1"><path class="cls-1" d="M.78 39.63v1h.28v-1h.66v2.47h-.66v-1H.78v1H.12v-2.47zm1.77 0V40H2v-.4zm0 .57v1.9H2v-1.89zm.24.01h.59v.21a.29.29 0 0 1 .33-.21h.12c.34 0 .39.06.41.49v1c0 .29-.08.4-.33.41h-.14c-.22 0-.25 0-.39-.21v.8h-.59zm.59 1.24c0 .15 0 .21.13.21s.13-.07.13-.21v-.58c0-.15 0-.21-.13-.21s-.13.07-.13.21zm1.06-1.24H5v.21a.29.29 0 0 1 .33-.21h.12c.34 0 .39.06.41.49v1c0 .29-.08.4-.33.41h-.11c-.22 0-.25 0-.39-.21v.8h-.59zM5 41.44c0 .15 0 .21.13.21s.13-.07.13-.21v-.58c0-.15 0-.21-.13-.21s-.13.07-.13.21zm1.69-1.81V40H6.1v-.4zm0 .57v1.9H6.1v-1.89zm.81 1.19v.1c0 .13 0 .16.21.16h.64v.45h-1c-.38 0-.45-.07-.45-.4v-1.11c0-.31.09-.38.48-.38h.46c.41 0 .51.08.49.41v.78zm.26-.39v-.17c0-.13 0-.21-.13-.21s-.13.08-.13.21V41zm2.36-1.37v1h.28v-1h.66v2.47h-.66v-1h-.28v1h-.66v-2.47zm2.62 2.47h-.59v-.21c-.08.17-.15.22-.33.21h-.12c-.34 0-.39-.06-.41-.49v-1c0-.29.08-.4.33-.41h.13c.22 0 .25 0 .4.21v-.2h.59zm-.59-1.25c0-.15 0-.21-.13-.21s-.13.07-.13.21v.58c0 .15 0 .21.13.21s.13-.07.13-.21zm1.76-.2h-.2c-.14 0-.17 0-.17.24v.53c0 .19 0 .23.18.23h.18v.45h-.54c-.21 0-.3 0-.37-.12a.35.35 0 0 1 0-.2v-1.13c0-.35.06-.42.42-.42h.53zm.76-1.02v1.3h.07c.15 0 .19-.07.19-.31v-.41h.59v.39c0 .32-.1.44-.44.52.31.05.44.19.44.44v.16a.9.9 0 0 0 0 .38H15a1.18 1.18 0 0 1 0-.36v-.09c0-.16-.05-.23-.17-.24h-.09v.69h-.59v-2.47zm1.64 1.76v.1c0 .13 0 .16.21.16h.64v.45h-1c-.38 0-.45-.07-.45-.4v-1.11c0-.31.09-.38.48-.38h.46c.41 0 .51.08.49.41v.78zm.26-.36v-.17c0-.13 0-.21-.13-.21s-.13.08-.13.21V41zm1.43-.82v.24c.11-.19.21-.25.38-.25h.1v.64a2.53 2.53 0 0 0-.44-.17v1.43h-.59v-1.89zm2.12-.58v1h.28v-1h.66v2.47h-.66v-1h-.28v1h-.66v-2.47zm2.62 2.47h-.59v-.21c-.08.17-.15.22-.33.21h-.12c-.34 0-.39-.06-.41-.49v-1c0-.29.08-.4.33-.41h.13c.22 0 .25 0 .4.21v-.2h.59zm-.59-1.25c0-.15 0-.21-.13-.21s-.13.07-.13.21v.58c0 .15 0 .21.13.21s.13-.07.13-.21zm1.4-.64v.24c.11-.19.21-.25.38-.25h.1v.64a2.53 2.53 0 0 0-.44-.17v1.43H23v-1.89zm1.23 0v.2c.1-.17.19-.21.42-.21s.38.06.44.23a.37.37 0 0 1 .36-.23c.36 0 .45.08.45.4v1.5h-.59v-1.26c0-.13-.05-.2-.14-.2s-.13.07-.13.21v1.25H25v-1.25c0-.14 0-.21-.14-.21s-.13.07-.13.22v1.24h-.59v-1.89zm2.83 0c.51 0 .57.06.56.53v.84c0 .46-.05.52-.56.52h-.33c-.51 0-.58-.06-.56-.52v-.84c0-.46.05-.52.56-.53zm0 .65c0-.14 0-.2-.14-.2s-.13.06-.13.2v.59c0 .14 0 .2.14.2s.13-.07.13-.2zm1.39-.65v.2a.4.4 0 0 1 .42-.21c.23 0 .35 0 .4.16s0 .07 0 .49v1.25h-.59v-1.25c0-.14 0-.21-.14-.21s-.13.07-.13.22v1.24h-.59v-1.89zm1.61.71c0 .51 0 .53.13.74.12-.21.13-.23.13-.74v-.72h.59v.69a2.09 2.09 0 0 1-.08.69 1.13 1.13 0 0 1-.35.52v.61h-.57v-.61a1.16 1.16 0 0 1-.37-.59 2.53 2.53 0 0 1-.06-.61v-.69h.59zm.32-33.54l-2.24-2.29v12.06l-2.98 1V11.1l-4.69-5.65h-.01L18.96 3.4v12.05l-2.73.97V9.41l-4.66-5.62L9.48 1.7v12.05L6.5 14.76V7.71L2.24 2.29 0 0v27.57l4.4 5.59 2.1 2.12V22.21l2.98-1v8.05l4.7 5.66 2.05 2.05V23.91l2.73-.97v8.02l4.7 5.66 2.05 2.05V25.61l2.98-1.01v8.06l4.45 5.66 2.05 2.05V12.8l-4.26-5.42z"/><path class="cls-2" d="M23.79 19.23l-.54.18V9.2l-3.88-4.67v11.21l-.27.1-4.79 1.69-.54.2V7.5L9.89 2.83v11.22l-.28.09-5.03 1.7-.54.18V5.8L.41 1.19v26.24l3.63 4.61V19.87l.28-.1 5.03-1.7.54-.18v11.23l3.88 4.66V21.57l.27-.1 4.79-1.7.54-.19v11.23l3.88 4.67V23.26l.27-.09 5.04-1.7.54-.18v11.23l3.63 4.61V10.89L29.1 6.28v11.16l-.28.1-5.03 1.69z"/></g></g></svg>